<svg width="600" height="299" xmlns="http://www.w3.org/2000/svg" xml:space="preserve" version="1.1">
 <g>
  <title>Layer 1</title>
  <path stroke="null" id="svg_1" fill="#00a1d6" d="m551.84011,266.61896c-2.65555,0 -4.92082,0.23335 -7.14368,-0.04667c-4.5051,-0.56937 -9.0102,-0.45736 -13.52378,-0.6067c-2.91008,-0.08401 -2.82523,-0.08401 -3.07127,-3.18287c-0.72116,-9.45527 -1.51018,-18.90121 -2.28224,-28.34715c-0.67025,-8.29786 -1.30656,-16.60506 -2.04469,-24.89359c-0.67025,-7.59782 -1.47625,-15.17697 -2.20589,-22.76546c-0.6957,-7.13112 -1.3405,-14.27158 -2.06166,-21.39337a3363.12862,3699.97006 0 0 0 -2.83372,-26.88172c-0.87387,-7.91517 -1.73926,-15.84901 -2.70645,-23.75485a5452.47651,5998.58113 0 0 0 -4.64933,-36.75702c-1.69684,-13.04883 -3.73304,-26.03233 -5.86257,-38.99716c-0.38179,-2.32415 -0.33088,-2.40815 1.68835,-2.78151c8.39934,-1.57743 16.84109,-2.92152 25.38466,-2.71618c0.92478,0.028 1.85804,0.04667 2.77433,0.17735c1.5017,0.20534 2.28224,1.00806 2.36709,2.93085c0.29695,6.70176 0.72116,13.40352 1.17081,20.09595c0.72116,10.96737 1.5017,21.93474 2.24831,32.89277c0.47511,7.05645 0.88235,14.09423 1.36595,21.13202c0.77206,11.31272 1.58654,22.61611 2.36709,33.92884c0.47511,6.91644 0.89084,13.85156 1.37444,20.768c0.73812,10.15532 1.54412,20.3013 2.29073,30.44728c0.47511,6.45908 0.89932,12.92749 1.39989,19.38657c0.73812,9.56728 1.53564,19.13456 2.29073,28.70184c0.56844,7.46714 1.08597,14.95296 1.6629,22.66278zm-325.18162,-233.02158c1.23021,0 3.08824,-0.14934 4.92082,0.03733c2.33315,0.23335 2.78281,0.89606 2.92704,3.47222c0.67025,11.77942 1.29808,23.56817 2.01075,35.35693c0.78055,12.71281 1.63745,25.40696 2.49435,38.1011c0.78903,11.65808 1.57806,23.31616 2.42647,34.97424c0.92478,12.80615 1.95136,25.59364 2.88462,38.39979c0.70419,9.80996 1.30656,19.61992 2.0362,29.43922c0.6957,9.10991 1.51018,18.20116 2.25679,27.30175c0.63632,7.83117 1.28111,15.67167 1.90046,23.51217c0.19514,2.48283 0.03394,2.6415 -2.40102,2.57617c-6.37162,-0.16801 -12.7093,-0.9894 -19.08092,-0.79338c-1.45928,0.04667 -1.88349,-0.69071 -2.12953,-2.21214c-0.52602,-3.31355 -0.44118,-6.68309 -0.76358,-10.03398c-0.87387,-8.8579 -1.37444,-17.75313 -2.11256,-26.6297c-0.66177,-8.06452 -1.45928,-16.11036 -2.21437,-24.16555c-0.67025,-7.36447 -1.33202,-14.72894 -2.04469,-22.10275c-0.71267,-7.2338 -1.46776,-14.47693 -2.21437,-21.72006c-0.68722,-6.66443 -1.35747,-13.32885 -2.08711,-19.99328c-1.07749,-9.76329 -2.1465,-19.52658 -3.31732,-29.27121c-1.07749,-8.9419 -2.29921,-17.85581 -3.44458,-26.78838c-1.56109,-12.13411 -3.31732,-24.24022 -5.26019,-36.29966a369.68962,406.71669 0 0 0 -1.40837,-8.17652c-0.25453,-1.37209 -0.02545,-2.16547 1.39989,-2.38015c3.75001,-0.5507 7.49153,-1.40942 11.25851,-1.81078c3.76698,-0.38269 7.53395,-1.15741 11.9627,-0.79338zm266.81895,117.6822c7.17762,0 7.3473,0.05601 8.50115,7.15913c1.41686,8.76456 2.40951,17.60379 3.35125,26.44302c0.99265,9.41794 1.99378,18.83587 2.91007,28.26314c0.73812,7.58849 1.35747,15.19564 2.05317,22.78412c0.72964,7.95251 1.5017,15.87702 2.25679,23.82019c0.41573,4.48962 0.806,8.97924 1.27263,13.45953c0.13575,1.29742 -0.22059,1.98813 -1.38292,2.13747c-2.45193,0.30802 -4.88689,0.66271 -7.33033,0.95206c-4.47965,0.53203 -8.96778,1.05473 -13.45591,1.5121c-2.31618,0.23335 -2.46889,0.09334 -2.90159,-2.37082c-3.93666,-22.35476 -7.8818,-44.69086 -11.78452,-67.05496c-2.59616,-14.86895 -5.12445,-29.74724 -7.6697,-44.61619a213.63163,235.02837 0 0 1 -0.95023,-6.15106c-0.16968,-1.17608 0.11878,-1.93212 1.33202,-2.24948c8.08542,-2.08147 16.25569,-3.6869 23.79812,-4.08826zm-301.56166,0c7.67818,0 7.64424,0.028 8.83203,7.69116c1.83258,11.86342 3.13066,23.79219 4.29299,35.75829c1.13688,11.61141 2.37557,23.21349 3.487,34.82489c0.75509,7.94318 1.34899,15.90502 2.05317,23.83886c0.50057,5.64703 1.09446,11.27539 1.63745,16.91308c0.06787,0.69071 0.10181,1.38142 0.14423,2.08147c0.11029,2.76284 0,2.98686 -2.41799,3.25754c-4.79356,0.5507 -9.59561,1.00807 -14.38917,1.53077c-1.73926,0.18668 -3.47003,0.4667 -5.19232,0.65338c-2.29073,0.23335 -2.36709,0.22402 -2.81675,-2.32415c-1.612,-8.95124 -3.17308,-17.92115 -4.75114,-26.87239c-3.78394,-21.56138 -7.61031,-43.10409 -11.3688,-64.66547c-1.5017,-8.62455 -2.79129,-17.28644 -4.26754,-25.92032c-0.27149,-1.57743 -0.06787,-2.31481 1.41686,-2.69751c8.00907,-2.05347 16.06904,-3.6589 23.33998,-4.06959zm101.34352,90.40845l0,36.18765c0,0.34536 -0.03394,0.70004 0.00848,1.0454c0.1612,1.75478 -0.42421,2.5295 -2.07014,2.45483c-2.16347,-0.10267 -4.30996,-0.03734 -6.47343,0.01867c-4.51358,0.09334 -9.03565,-0.10267 -13.54075,0.4667c-2.49435,0.31736 -2.44344,0.14934 -2.68948,-2.74417c-0.73812,-9.10992 -1.54412,-18.2105 -2.29921,-27.32042c-0.6957,-8.40987 -1.32353,-16.83841 -2.0362,-25.24828c-0.72116,-8.65255 -1.52715,-17.27711 -2.25679,-25.92032c-0.50057,-5.76837 -0.94174,-11.5274 -1.38292,-17.29578c-0.57692,-7.50448 -1.11143,-14.99962 -1.7138,-22.50411c-0.25453,-3.1642 -0.04242,-3.61223 2.80826,-3.93892a141.05796,155.18593 0 0 1 22.15219,-0.75605c1.84107,0.112 3.67365,0.50403 5.45533,0.98006c2.24831,0.58804 2.49435,0.95206 2.61313,3.53756c0.24604,5.20833 0.49208,10.41667 0.61934,15.63433c0.14423,5.79637 0.02545,11.60208 0.22059,17.39845c0.49208,15.98902 0.41573,31.99671 0.58541,48.00441zm300.95929,1.64277l0,34.26486c0,0.5787 -0.01697,1.15741 0.00848,1.74544c0.11029,1.50276 -0.52602,2.0348 -1.8241,2.02546c-3.19005,-0.028 -6.37162,0 -9.55319,0.04667c-3.59729,0.03733 -7.1861,0.01867 -10.77491,0.44803c-2.36708,0.29869 -2.38405,0.10267 -2.59616,-2.48283c-0.97568,-11.86342 -2.00227,-23.72685 -2.98643,-35.60894c-0.89932,-10.9487 -1.73077,-21.90673 -2.64706,-32.86477c-0.94174,-11.30339 -1.96833,-22.57878 -2.89311,-33.87283c-0.45815,-5.65636 -0.83993,-11.31272 -1.22172,-16.96909c-0.15271,-2.46416 0.09333,-2.90285 2.62161,-3.12687c4.3948,-0.38269 8.77264,-1.03607 13.20138,-0.95206c4.41177,0.09334 8.83203,-0.17735 13.21835,0.74671c3.71607,0.78405 3.90272,1.0174 4.12331,5.38568c0.63631,12.85282 0.44118,25.74298 0.8569,38.5958c0.42421,13.68354 0.12726,27.36708 0.46663,42.61873zm-108.23267,-154.23387c2.59616,0.16801 4.64085,0.028 6.67705,0.5227c1.29808,0.32669 1.95136,0.97073 2.07862,2.50149c0.61086,7.36447 1.27263,14.73828 1.94288,22.11208c0.5345,5.98305 1.10294,11.9661 1.65442,17.94915l0.0509,0.34536c0.44118,3.77091 0.33937,3.87358 -2.99492,4.07893c-2.96946,0.17734 -5.93044,0.4667 -8.8999,0.66271c-1.95136,0.13068 -2.57071,0.4947 -2.89311,-2.63217c-1.11143,-11.03271 -2.40102,-22.03741 -3.63123,-33.06078a314.27945,345.75679 0 0 0 -1.13688,-9.27793c-0.24604,-1.74544 0.3733,-2.70684 1.85803,-2.84685c1.95136,-0.19601 3.90272,-0.25202 5.29413,-0.35469zm-300.58598,0.04667c2.00226,0.12134 4.06392,-0.04667 6.08316,0.4667c1.15385,0.28935 1.73926,0.82139 1.84955,2.26814c0.24604,3.45355 0.72964,6.89777 1.02659,10.35133c0.94174,10.59401 1.83258,21.19736 2.71494,31.8007c0.18665,2.30548 0.14423,2.35215 -1.81561,2.51083c-3.47851,0.28002 -6.96551,0.56004 -10.45251,0.71871c-2.02772,0.10267 -2.28224,-0.16801 -2.53677,-2.44549c-0.88235,-7.80317 -1.7138,-15.61566 -2.56222,-23.42816c-0.68722,-6.44041 -1.26414,-12.88082 -2.09559,-19.30257c-0.22907,-1.77345 0.29695,-2.25881 1.58654,-2.54816c2.04469,-0.45736 4.09786,-0.30802 6.20194,-0.39203zm105.8571,29.17787c0,6.7111 0.01697,13.41286 -0.00849,20.13329c0,3.01486 -0.03394,3.03352 -2.75736,2.99619a86.00412,94.61805 0 0 1 -9.80771,-0.56004c-2.10408,-0.28935 -2.1465,-0.21468 -2.20589,-2.6695c-0.21211,-8.20453 -0.43269,-16.40905 -0.58541,-24.61357c-0.11029,-5.55369 -0.16968,-11.08871 -0.47511,-16.6424c-0.1612,-2.86552 -0.01697,-2.89352 2.48587,-2.93085c3.69062,-0.04667 7.37275,0.14001 11.03792,0.75605c2.20589,0.37336 2.3077,0.37336 2.31618,3.06153c0.01697,6.8231 0.01697,13.64621 0.01697,20.47864l-0.01697,0l0,-0.00933zm301.112,0.17734c0,6.72043 0.01697,13.43153 -0.00849,20.14262c0,2.81885 -0.04242,2.83751 -2.61313,2.81885a134.01609,147.43877 0 0 1 -10.11314,-0.5227c-1.67138,-0.14001 -2.16347,-0.91473 -2.05317,-2.5855c0.01697,-0.23335 0,-0.4667 0,-0.70004c-0.25453,-12.9555 -0.50905,-25.90166 -0.74661,-38.85715c-0.00848,-0.69071 -0.04242,-1.38142 -0.01697,-2.08147c0.03394,-2.6135 0.04242,-2.67884 2.42647,-2.66017c3.28338,0.01867 6.5413,0.20535 9.81619,0.56004c3.99605,0.43869 3.29186,0.98006 3.30883,4.45228c0.01697,6.46841 0.00848,12.9555 0,19.43324zm-415.20724,15.75568c0.07636,3.6869 0.07636,3.67757 -3.13066,4.53629c-2.18043,0.58804 -4.36087,1.23208 -6.55827,1.76411c-1.875,0.4667 -2.20589,0.20535 -2.52829,-1.82011c-2.23982,-13.73955 -4.47116,-27.48843 -6.69402,-41.23731c-0.44966,-2.84685 -0.33088,-3.02419 2.21437,-3.51889c3.13066,-0.60671 6.25284,-1.20408 9.3835,-1.73611c1.99378,-0.34536 2.24831,-0.22402 2.64706,2.19347c0.78903,4.88165 1.53564,9.78196 2.12104,14.70094c0.90781,7.7845 1.65442,15.597 2.4689,23.39083c0.06787,0.56937 0.0509,1.15741 0.07636,1.72678zm282.21773,-39.88388c4.09786,-0.73738 8.22965,-1.48409 12.36145,-2.20281c1.48473,-0.25202 1.93439,0.77472 2.12953,2.23081c0.70419,5.37634 1.58654,10.71535 2.16347,16.10103c0.84842,7.80317 2.01075,15.569 2.23134,23.4375c0.01697,0.80272 0.00849,1.6241 0.02545,2.42682c0.04242,1.25075 -0.52602,1.89479 -1.57806,2.16547c-2.79978,0.69071 -5.59956,1.38142 -8.39085,2.1188c-1.3405,0.35469 -1.79016,-0.27068 -2.01075,-1.70811c-0.83993,-5.46968 -1.80713,-10.91136 -2.66403,-16.36238c-1.45079,-8.97924 -2.85917,-17.96782 -4.26754,-26.95639c-0.03394,-0.32669 0,-0.67204 0,-1.25075zm-188.46756,31.52068c-0.11878,4.77897 0.14423,8.9419 -0.44966,13.10484c-0.17817,1.31608 -0.52602,2.16547 -1.81561,2.28681c-2.76584,0.25202 -5.5232,0.4947 -8.27207,0.80272c-1.33202,0.15868 -1.70532,-0.47603 -1.92591,-1.91345c-0.61934,-4.24694 -0.50905,-8.54988 -0.88235,-12.81549c-0.70419,-8.05518 -1.00114,-16.16637 -1.47625,-24.24955c-0.11878,-1.96946 -0.29695,-3.92025 -0.44118,-5.88971c-0.07636,-1.1014 0.3224,-1.71744 1.3914,-1.76411c3.58032,-0.15868 7.14368,-0.87739 10.74097,-0.73738c2.10408,0.08401 2.28224,0.23335 2.43496,2.56683c0.09333,1.61477 0.06787,3.24821 0.10181,4.87231l0.59389,23.73619zm300.98474,-4.62963c0,5.56302 0.05939,11.12605 -0.00848,16.68907c-0.04242,2.89352 -0.33937,3.14554 -2.82523,3.39755c-2.46041,0.25202 -4.90385,0.45736 -7.35578,0.74672c-1.38292,0.15868 -2.02772,-0.28935 -2.11256,-2.0348c-0.35634,-7.39247 -0.83993,-14.78495 -1.30656,-22.16809c-0.36482,-6.12306 -0.78054,-12.23678 -1.17081,-18.35051c-0.04242,-0.70005 -0.00849,-1.40009 -0.05091,-2.0908c-0.05939,-1.22274 0.27998,-1.94146 1.52715,-1.98813c3.47851,-0.13068 6.93157,-0.86806 10.43554,-0.72805c2.13801,0.084 2.17195,0.12134 2.33315,2.56683c0.51754,7.97118 0.56844,15.96102 0.5345,23.9602zm-405.00926,99.43436c4.39481,5.32034 4.6154,11.62074 3.1646,18.2105c-1.45928,6.58975 -4.78508,12.0221 -8.81506,16.89441c-6.76189,8.13919 -14.93216,14.15024 -23.61996,19.2559c-14.95761,8.79256 -30.81454,14.6356 -47.35869,18.08916c-11.9033,2.47349 -23.88296,4.37761 -35.98989,5.10566c-3.69062,0.22401 -7.37275,0.41069 -11.06337,0.38269c-2.67252,0 -5.35352,0.08401 -8.01755,-0.01867c-2.26528,-0.09334 -2.59616,-0.5227 -2.78281,-3.12687c-0.68722,-9.34327 -1.27263,-18.69586 -2.02772,-28.03913c-0.88236,-10.82736 -1.91742,-21.64539 -2.86765,-32.47275c-0.6957,-7.83117 -1.29808,-15.681 -2.06166,-23.4935c-0.88235,-9.20325 -1.875,-18.38784 -2.8422,-27.5911c-0.88235,-8.49388 -1.73077,-17.00642 -2.66403,-25.50963c-1.04355,-9.41794 -2.12104,-18.8172 -3.26641,-28.21647a2182.38541,2400.96695 0 0 0 -3.50397,-27.13374a1587.13539,1746.09838 0 0 0 -6.44798,-44.53218a860.28728,946.45122 0 0 0 -6.27829,-36.10364c-0.30543,-1.60544 0.13575,-2.24948 1.41686,-2.83752c12.27661,-5.60036 24.51079,-11.30339 36.77891,-16.93175c2.28224,-1.0454 4.62388,-1.92279 7.05035,-2.41749c1.67987,-0.34536 2.11256,0.03733 2.06166,1.89479c-0.12726,4.75097 0.0509,9.52061 -0.3733,14.25291a42.80268,47.08968 0 0 0 -0.16969,3.81758c-0.19513,17.03442 -0.38179,34.07818 0.02545,51.12194c0.35634,14.93429 1.06901,29.85924 1.85804,44.7842c0.61934,11.77942 1.51018,23.55884 2.42647,35.31959c0.89932,11.5274 1.99378,23.03614 3.02037,34.56354c0.19513,2.19348 0.3733,2.39882 2.63858,2.0628a101.13142,111.26045 0 0 1 13.48136,-1.22274c14.02435,-0.03734 27.81963,2.08146 41.46219,5.63769c11.93724,3.11753 23.55208,7.27113 34.68332,13.07684c5.51472,2.87485 10.79188,6.19773 15.6024,10.41667c1.63745,1.41876 3.09673,3.0522 4.47965,4.76031zm298.84673,-2.80018c5.42987,5.23633 7.40669,11.64874 5.86257,19.58259c-1.28111,6.54308 -4.1827,12.04077 -8.05149,16.95975c-6.21042,7.90584 -13.75285,13.91689 -21.91463,18.93854c-16.00116,9.85663 -33.04588,16.25971 -50.96446,19.95595a305.27774,335.85349 0 0 1 -29.55888,4.53629c-5.61653,0.53203 -11.25851,1.19474 -17.56225,0.76538l-7.36427,0c-1.43383,0 -2.24831,-0.4947 -2.36709,-2.37082c-0.54299,-8.19519 -1.17082,-16.38105 -1.84107,-24.56691c-0.71267,-8.64322 -1.5017,-17.28644 -2.24831,-25.92966c-0.67874,-7.94317 -1.30656,-15.90502 -2.04469,-23.84819c-0.67873,-7.48581 -1.45928,-14.95296 -2.1974,-22.42944c-0.68722,-7.01912 -1.34898,-14.03823 -2.10408,-21.04801c-0.90781,-8.49388 -1.86652,-16.98775 -2.82523,-25.48163c-0.89932,-7.92451 -1.79016,-15.83968 -2.74887,-23.75485a1626.67167,1789.5945 0 0 0 -3.22399,-25.42563c-1.51019,-10.98603 -3.13066,-21.93474 -4.72569,-32.9021a864.3512,950.92218 0 0 0 -7.7206,-46.38963c-0.11878,-0.68138 -0.17817,-1.38142 -0.36482,-2.04413c-0.44118,-1.49343 -0.01697,-2.28681 1.31505,-2.86552c13.04019,-5.60969 25.66464,-12.37679 38.8236,-17.7158c1.72229,-0.70938 3.46155,-1.50276 5.31958,-1.70811c1.67138,-0.18668 2.09559,0.11201 1.93439,2.07213c-0.88235,10.63135 -0.3733,21.3187 -0.83145,31.95938c-0.3733,8.68055 -0.33088,17.38911 0.06787,26.079c0.09333,2.20281 0.16968,4.41495 0.15271,6.60842c-0.10181,10.43533 0.39876,20.86133 0.88235,31.278c0.61934,13.76755 1.52715,27.50709 2.45193,41.25597c0.67025,9.92197 1.54412,19.82527 2.39254,29.7379c0.44966,5.42301 0.93326,10.83669 1.54412,16.2317c0.33088,2.97752 0.46663,3.00553 3.12218,2.6135c4.68327,-0.70005 9.37502,-1.26942 14.10919,-1.19475c16.61202,0.23335 32.89316,3.11753 48.86887,8.12986c10.81733,3.37888 21.34619,7.59782 31.28965,13.5062a67.2456,73.98073 0 0 1 12.52265,9.46461zm-383.61216,51.42062c6.14255,-3.22954 35.96444,-28.86985 38.33152,-33.05145c-14.47401,-6.86044 -28.99892,-13.23551 -44.6183,-18.45318l6.28678,51.50463zm338.72237,-31.37134c0.76358,-0.90539 0.67873,-1.60544 -0.35634,-2.10947c-2.06166,-1.03607 -4.10634,-2.13747 -6.19345,-3.0802c-11.13973,-5.01232 -22.33036,-9.86597 -33.80945,-13.82355c-1.00114,-0.33602 -2.02772,-1.10141 -3.30883,-0.44803l6.18497,50.60857c0.91629,0.22402 1.27263,-0.24268 1.67987,-0.56004c10.42706,-8.41921 20.92199,-16.73574 30.93332,-25.78965c1.68835,-1.5121 3.35973,-3.03353 4.86992,-4.79764z"/>
 </g>

</svg>