<svg width="16" height="16" xmlns="http://www.w3.org/2000/svg" class="download-client-trigger__icon" fill="none">

 <g>
  <title>Layer 1</title>
  <path id="svg_1" fill="currentColor" d="m7.23181,8.65895l0,-6.90099c0,-0.41861 0.34401,-0.75796 0.76837,-0.75796c0.42435,0 0.76836,0.33935 0.76836,0.75796l0,6.91301l1.21735,-1.20088c0.30011,-0.296 0.78661,-0.296 1.08661,0c0.3001,0.29601 0.3001,0.77592 0,1.07192l-2.52292,2.48879c-0.30006,0.296 -0.78656,0.296 -1.08663,0l-2.52293,-2.48879c-0.30007,-0.296 -0.30007,-0.77591 0,-1.07192c0.30006,-0.296 0.78656,-0.296 1.08663,0l1.20516,1.18886z"/>
  <path id="svg_2" fill="currentColor" d="m3.48023,4.29936c-1.07337,0 -1.94351,0.85836 -1.94351,1.9172l0,5.35034c0,1.0588 0.87014,1.9172 1.94351,1.9172l9.03957,0c1.0733,0 1.9435,-0.8584 1.9435,-1.9172l0,-5.35034c0,-1.05884 -0.8702,-1.9172 -1.9435,-1.9172l-0.904,0c-0.4243,0 -0.7683,-0.33935 -0.7683,-0.75796c0,-0.41861 0.344,-0.75796 0.7683,-0.75796l0.904,0c1.922,0 3.4802,1.53706 3.4802,3.43312l0,5.35034c0,1.896 -1.5582,3.4331 -3.4802,3.4331l-9.03957,0c-1.92208,0 -3.48023,-1.5371 -3.48023,-3.4331l0,-5.35034c0,-1.89606 1.55815,-3.43312 3.48023,-3.43312l0.90395,0c0.42435,0 0.76836,0.33935 0.76836,0.75796c0,0.41861 -0.34401,0.75796 -0.76836,0.75796l-0.90395,0z"/>
 </g>
</svg>